<svg width="475" height="475" viewBox="0 0 475 475" fill="none" xmlns="http://www.w3.org/2000/svg">
<circle cx="237.5" cy="237.5" r="237.5" fill="black"/>
<mask id="path-2-outside-1_139_2" maskUnits="userSpaceOnUse" x="53" y="138" width="370" height="227" fill="black">
<rect fill="white" x="53" y="138" width="370" height="227"/>
<path d="M299.007 262.508L278.101 257.067L269.796 266.231C279.342 266.231 289.079 264.99 299.007 262.508ZM257.768 254.489C251.086 254.489 247.745 255.73 247.745 258.212C247.745 259.74 248.986 261.267 251.468 262.794C253.95 264.131 257.291 265.181 261.491 265.944L270.369 255.635C265.023 254.871 260.823 254.489 257.768 254.489ZM241.158 192.344C235.621 193.681 230.753 196.449 226.552 200.649C222.543 204.659 220.538 207.618 220.538 209.527C220.538 211.436 221.111 212.391 222.257 212.391C227.03 212.391 231.134 210.482 234.571 206.663C238.008 202.845 240.203 198.072 241.158 192.344ZM115.436 313.484C115.436 315.584 117.059 316.634 120.304 316.634C123.741 316.634 126.891 314.439 129.755 310.047C132.81 305.465 134.337 300.406 134.337 294.869C134.337 293.342 134.242 292.196 134.051 291.433C121.641 300.597 115.436 307.947 115.436 313.484ZM280.965 253.63L307.885 259.644C323.731 254.107 336.428 245.898 345.974 235.015C355.711 224.133 360.579 213.727 360.579 203.8C360.579 193.681 357.047 185.185 349.983 178.312C342.155 185.185 335.855 191.199 331.082 196.354C326.5 201.318 322.968 205.136 320.486 207.809C318.004 210.291 314.567 214.109 310.176 219.264C305.785 224.419 302.634 228.047 300.725 230.147C299.007 232.056 295.57 236.065 290.416 242.175C285.452 248.284 282.301 252.103 280.965 253.63ZM247.745 191.485L245.74 191.771C244.403 199.79 241.253 206.472 236.289 211.818C231.325 217.164 225.216 219.837 217.961 219.837C214.906 219.837 213.379 218.119 213.379 214.682C213.379 211.055 216.147 206.282 221.684 200.363C227.411 194.253 234.094 190.244 241.731 188.335V186.903C241.731 182.512 240.203 177.834 237.148 172.87C220.347 179.934 206.983 189.29 197.055 200.936C187.127 212.391 182.163 222.796 182.163 232.151C182.163 242.652 188.177 247.902 200.205 247.902C212.424 247.902 225.407 242.079 239.153 230.433C253.09 218.596 260.059 208.477 260.059 200.077C260.059 194.349 255.954 191.485 247.745 191.485ZM417.283 140.223C419.001 140.223 420.051 140.891 420.433 142.227C420.433 143.946 418.619 145.091 414.992 145.664C395.709 147.955 375.948 157.31 355.711 173.729C364.493 181.175 368.884 190.34 368.884 201.222C368.884 212.105 363.92 223.178 353.992 234.442C344.255 245.707 331.082 254.585 314.472 261.076C323.636 262.603 333.373 263.367 343.683 263.367C345.592 263.367 346.546 263.844 346.546 264.799C346.546 266.326 344.542 267.09 340.532 267.09C327.168 267.09 315.713 266.04 306.167 263.94C293.566 267.949 280.297 270.049 266.359 270.24C254.331 283.987 243.258 295.728 233.139 305.465C223.02 315.202 211.565 324.844 198.773 334.39C172.808 353.291 144.456 362.742 113.718 362.742C94.2437 362.742 79.5428 358.828 69.6148 351C59.8778 342.981 55.0094 332.862 55.0094 320.643C55.0094 308.234 60.4506 296.874 71.3331 286.564C82.2157 276.063 95.8665 270.813 112.286 270.813C125.459 270.813 133.764 275.395 137.201 284.559C155.339 273.295 174.335 267.663 194.191 267.663C196.673 268.236 197.914 269.19 197.914 270.527C197.914 271.099 197.437 271.386 196.482 271.386C175.672 271.386 156.293 277.113 138.347 288.569C138.537 289.332 138.633 290.669 138.633 292.578C138.633 299.451 136.533 306.038 132.333 312.338C128.132 318.448 123.264 321.503 117.727 321.503C112.19 321.503 109.422 319.402 109.422 315.202C109.422 311.575 111.522 307.184 115.722 302.029C120.114 296.874 125.841 291.91 132.905 287.137C129.469 278.545 121.545 274.25 109.136 274.25C96.9166 274.25 86.5114 279.023 77.9199 288.569C69.3285 297.924 65.0327 308.234 65.0327 319.498C65.0327 330.762 69.3285 340.117 77.9199 347.563C86.7023 354.818 98.8258 358.446 114.29 358.446C129.755 358.446 143.788 356.155 156.389 351.573C168.989 347.182 181.208 340.499 193.046 331.526C205.074 322.553 215.861 313.484 225.407 304.32C235.144 294.965 245.931 283.605 257.768 270.24C251.468 269.858 246.504 268.713 242.876 266.804C239.439 264.894 237.721 262.699 237.721 260.217C237.721 257.735 239.63 255.635 243.449 253.916C247.458 252.198 252.04 251.339 257.195 251.339C262.541 251.339 267.887 251.721 273.233 252.485C274.951 250.575 278.865 246.089 284.974 239.025C291.084 231.77 295.284 226.901 297.575 224.419C299.866 221.746 303.589 217.546 308.744 211.818C314.09 205.9 318.385 201.318 321.631 198.072C332.323 187.38 340.341 179.743 345.687 175.161C333.277 166.57 315.426 162.274 292.134 162.274C274.569 162.274 257.863 165.138 242.017 170.866C244.881 175.448 246.313 179.171 246.313 182.035C246.313 184.898 246.217 186.712 246.026 187.476C246.79 187.285 248.031 187.189 249.749 187.189C261.968 187.189 268.078 190.912 268.078 198.358C268.078 204.468 264.259 211.818 256.622 220.41C248.986 229.001 239.535 236.543 228.271 243.034C217.006 249.525 207.269 252.771 199.06 252.771C190.85 252.771 184.836 251.053 181.018 247.616C177.199 244.179 175.29 239.597 175.29 233.87C175.29 223.751 180.636 212.486 191.327 200.077C202.21 187.476 216.72 177.357 234.857 169.72C225.502 159.028 211.088 153.683 191.614 153.683C178.44 153.683 166.03 155.783 154.384 159.983C142.929 163.992 133.669 168.956 126.605 174.875C111.713 187.094 101.594 198.072 96.2484 207.809L93.0982 214.109C92.1436 215.637 91.0935 216.4 89.948 216.4C88.8024 216.4 88.2297 215.35 88.2297 213.25C90.9026 207.141 95.4847 200.077 101.976 192.058C108.467 184.039 115.341 177.261 122.596 171.725C129.851 166.188 139.778 161.129 152.379 156.546C165.171 151.964 178.917 149.673 193.618 149.673C214.429 149.673 229.798 155.687 239.726 167.715C257.863 161.033 277.815 157.692 299.58 157.692C321.345 157.692 338.623 161.892 351.415 170.293C374.135 152.155 396.091 142.132 417.283 140.223Z"/>
</mask>
<path d="M299.007 262.508L278.101 257.067L269.796 266.231C279.342 266.231 289.079 264.99 299.007 262.508ZM257.768 254.489C251.086 254.489 247.745 255.73 247.745 258.212C247.745 259.74 248.986 261.267 251.468 262.794C253.95 264.131 257.291 265.181 261.491 265.944L270.369 255.635C265.023 254.871 260.823 254.489 257.768 254.489ZM241.158 192.344C235.621 193.681 230.753 196.449 226.552 200.649C222.543 204.659 220.538 207.618 220.538 209.527C220.538 211.436 221.111 212.391 222.257 212.391C227.03 212.391 231.134 210.482 234.571 206.663C238.008 202.845 240.203 198.072 241.158 192.344ZM115.436 313.484C115.436 315.584 117.059 316.634 120.304 316.634C123.741 316.634 126.891 314.439 129.755 310.047C132.81 305.465 134.337 300.406 134.337 294.869C134.337 293.342 134.242 292.196 134.051 291.433C121.641 300.597 115.436 307.947 115.436 313.484ZM280.965 253.63L307.885 259.644C323.731 254.107 336.428 245.898 345.974 235.015C355.711 224.133 360.579 213.727 360.579 203.8C360.579 193.681 357.047 185.185 349.983 178.312C342.155 185.185 335.855 191.199 331.082 196.354C326.5 201.318 322.968 205.136 320.486 207.809C318.004 210.291 314.567 214.109 310.176 219.264C305.785 224.419 302.634 228.047 300.725 230.147C299.007 232.056 295.57 236.065 290.416 242.175C285.452 248.284 282.301 252.103 280.965 253.63ZM247.745 191.485L245.74 191.771C244.403 199.79 241.253 206.472 236.289 211.818C231.325 217.164 225.216 219.837 217.961 219.837C214.906 219.837 213.379 218.119 213.379 214.682C213.379 211.055 216.147 206.282 221.684 200.363C227.411 194.253 234.094 190.244 241.731 188.335V186.903C241.731 182.512 240.203 177.834 237.148 172.87C220.347 179.934 206.983 189.29 197.055 200.936C187.127 212.391 182.163 222.796 182.163 232.151C182.163 242.652 188.177 247.902 200.205 247.902C212.424 247.902 225.407 242.079 239.153 230.433C253.09 218.596 260.059 208.477 260.059 200.077C260.059 194.349 255.954 191.485 247.745 191.485ZM417.283 140.223C419.001 140.223 420.051 140.891 420.433 142.227C420.433 143.946 418.619 145.091 414.992 145.664C395.709 147.955 375.948 157.31 355.711 173.729C364.493 181.175 368.884 190.34 368.884 201.222C368.884 212.105 363.92 223.178 353.992 234.442C344.255 245.707 331.082 254.585 314.472 261.076C323.636 262.603 333.373 263.367 343.683 263.367C345.592 263.367 346.546 263.844 346.546 264.799C346.546 266.326 344.542 267.09 340.532 267.09C327.168 267.09 315.713 266.04 306.167 263.94C293.566 267.949 280.297 270.049 266.359 270.24C254.331 283.987 243.258 295.728 233.139 305.465C223.02 315.202 211.565 324.844 198.773 334.39C172.808 353.291 144.456 362.742 113.718 362.742C94.2437 362.742 79.5428 358.828 69.6148 351C59.8778 342.981 55.0094 332.862 55.0094 320.643C55.0094 308.234 60.4506 296.874 71.3331 286.564C82.2157 276.063 95.8665 270.813 112.286 270.813C125.459 270.813 133.764 275.395 137.201 284.559C155.339 273.295 174.335 267.663 194.191 267.663C196.673 268.236 197.914 269.19 197.914 270.527C197.914 271.099 197.437 271.386 196.482 271.386C175.672 271.386 156.293 277.113 138.347 288.569C138.537 289.332 138.633 290.669 138.633 292.578C138.633 299.451 136.533 306.038 132.333 312.338C128.132 318.448 123.264 321.503 117.727 321.503C112.19 321.503 109.422 319.402 109.422 315.202C109.422 311.575 111.522 307.184 115.722 302.029C120.114 296.874 125.841 291.91 132.905 287.137C129.469 278.545 121.545 274.25 109.136 274.25C96.9166 274.25 86.5114 279.023 77.9199 288.569C69.3285 297.924 65.0327 308.234 65.0327 319.498C65.0327 330.762 69.3285 340.117 77.9199 347.563C86.7023 354.818 98.8258 358.446 114.29 358.446C129.755 358.446 143.788 356.155 156.389 351.573C168.989 347.182 181.208 340.499 193.046 331.526C205.074 322.553 215.861 313.484 225.407 304.32C235.144 294.965 245.931 283.605 257.768 270.24C251.468 269.858 246.504 268.713 242.876 266.804C239.439 264.894 237.721 262.699 237.721 260.217C237.721 257.735 239.63 255.635 243.449 253.916C247.458 252.198 252.04 251.339 257.195 251.339C262.541 251.339 267.887 251.721 273.233 252.485C274.951 250.575 278.865 246.089 284.974 239.025C291.084 231.77 295.284 226.901 297.575 224.419C299.866 221.746 303.589 217.546 308.744 211.818C314.09 205.9 318.385 201.318 321.631 198.072C332.323 187.38 340.341 179.743 345.687 175.161C333.277 166.57 315.426 162.274 292.134 162.274C274.569 162.274 257.863 165.138 242.017 170.866C244.881 175.448 246.313 179.171 246.313 182.035C246.313 184.898 246.217 186.712 246.026 187.476C246.79 187.285 248.031 187.189 249.749 187.189C261.968 187.189 268.078 190.912 268.078 198.358C268.078 204.468 264.259 211.818 256.622 220.41C248.986 229.001 239.535 236.543 228.271 243.034C217.006 249.525 207.269 252.771 199.06 252.771C190.85 252.771 184.836 251.053 181.018 247.616C177.199 244.179 175.29 239.597 175.29 233.87C175.29 223.751 180.636 212.486 191.327 200.077C202.21 187.476 216.72 177.357 234.857 169.72C225.502 159.028 211.088 153.683 191.614 153.683C178.44 153.683 166.03 155.783 154.384 159.983C142.929 163.992 133.669 168.956 126.605 174.875C111.713 187.094 101.594 198.072 96.2484 207.809L93.0982 214.109C92.1436 215.637 91.0935 216.4 89.948 216.4C88.8024 216.4 88.2297 215.35 88.2297 213.25C90.9026 207.141 95.4847 200.077 101.976 192.058C108.467 184.039 115.341 177.261 122.596 171.725C129.851 166.188 139.778 161.129 152.379 156.546C165.171 151.964 178.917 149.673 193.618 149.673C214.429 149.673 229.798 155.687 239.726 167.715C257.863 161.033 277.815 157.692 299.58 157.692C321.345 157.692 338.623 161.892 351.415 170.293C374.135 152.155 396.091 142.132 417.283 140.223Z" fill="#FCF9E8"/>
<path d="M299.007 262.508L299.41 264.121L299.426 260.899L299.007 262.508ZM278.101 257.067L278.52 255.458L277.545 255.204L276.869 255.95L278.101 257.067ZM269.796 266.231L268.564 265.114L266.046 267.893H269.796V266.231ZM251.468 262.794L250.596 264.21L250.637 264.235L250.679 264.258L251.468 262.794ZM261.491 265.944L261.194 267.58L262.13 267.75L262.751 267.029L261.491 265.944ZM270.369 255.635L271.629 256.72L273.61 254.418L270.604 253.989L270.369 255.635ZM241.158 192.344L242.798 192.618L243.211 190.138L240.768 190.728L241.158 192.344ZM234.571 206.663L235.807 207.776L235.807 207.776L234.571 206.663ZM129.755 310.047L128.372 309.125L128.367 309.132L128.363 309.139L129.755 310.047ZM134.051 291.433L135.664 291.029L135.061 288.62L133.063 290.095L134.051 291.433ZM280.965 253.63L279.714 252.535L277.87 254.642L280.602 255.253L280.965 253.63ZM307.885 259.644L307.522 261.267L307.985 261.37L308.433 261.214L307.885 259.644ZM345.974 235.015L344.735 233.907L344.729 233.913L344.724 233.919L345.974 235.015ZM349.983 178.312L351.142 177.12L350.041 176.048L348.886 177.062L349.983 178.312ZM331.082 196.354L329.862 195.224L329.86 195.226L331.082 196.354ZM320.486 207.809L321.661 208.984L321.683 208.963L321.704 208.94L320.486 207.809ZM310.176 219.264L311.441 220.342L311.441 220.342L310.176 219.264ZM300.725 230.147L299.495 229.028L299.49 229.035L300.725 230.147ZM290.416 242.175L289.145 241.103L289.135 241.114L289.125 241.126L290.416 242.175ZM247.745 191.485V189.823H247.626L247.509 189.839L247.745 191.485ZM245.74 191.771L245.505 190.126L244.3 190.298L244.1 191.498L245.74 191.771ZM236.289 211.818L235.071 210.687L235.071 210.687L236.289 211.818ZM221.684 200.363L220.471 199.226L220.47 199.227L221.684 200.363ZM241.731 188.335L242.134 189.948L243.393 189.633V188.335H241.731ZM237.148 172.87L238.564 171.999L237.818 170.785L236.504 171.338L237.148 172.87ZM197.055 200.936L198.311 202.025L198.32 202.014L197.055 200.936ZM239.153 230.433L240.228 231.702L240.229 231.7L239.153 230.433ZM417.283 140.223V138.56H417.208L417.134 138.567L417.283 140.223ZM420.433 142.227H422.096V141.995L422.032 141.771L420.433 142.227ZM414.992 145.664L415.188 147.315L415.22 147.311L415.251 147.306L414.992 145.664ZM355.711 173.729L354.663 172.438L353.107 173.701L354.636 174.998L355.711 173.729ZM353.992 234.442L352.745 233.343L352.74 233.349L352.735 233.355L353.992 234.442ZM314.472 261.076L313.866 259.528L308.246 261.724L314.198 262.716L314.472 261.076ZM306.167 263.94L306.524 262.316L306.088 262.22L305.662 262.356L306.167 263.94ZM266.359 270.24L266.337 268.578L265.596 268.588L265.108 269.145L266.359 270.24ZM233.139 305.465L234.292 306.663L234.292 306.663L233.139 305.465ZM198.773 334.39L199.752 335.734L199.76 335.728L199.768 335.722L198.773 334.39ZM69.6148 351L68.558 352.283L68.5716 352.295L68.5855 352.306L69.6148 351ZM71.3331 286.564L72.4765 287.771L72.482 287.766L72.4875 287.76L71.3331 286.564ZM137.201 284.559L135.644 285.143L136.356 287.041L138.078 285.972L137.201 284.559ZM194.191 267.663L194.565 266.043L194.38 266H194.191V267.663ZM138.347 288.569L137.452 287.167L136.444 287.811L136.734 288.972L138.347 288.569ZM132.333 312.338L133.703 313.28L133.709 313.27L133.716 313.261L132.333 312.338ZM115.722 302.029L114.457 300.951L114.445 300.964L114.434 300.978L115.722 302.029ZM132.905 287.137L133.836 288.514L134.947 287.764L134.449 286.519L132.905 287.137ZM77.9199 288.569L79.1444 289.693L79.1501 289.687L79.1556 289.681L77.9199 288.569ZM77.9199 347.563L76.8311 348.82L76.846 348.833L76.8611 348.845L77.9199 347.563ZM156.389 351.573L155.842 350.003L155.831 350.007L155.821 350.01L156.389 351.573ZM193.046 331.526L192.051 330.193L192.041 330.201L193.046 331.526ZM225.407 304.32L226.558 305.519L226.559 305.519L225.407 304.32ZM257.768 270.24L259.012 271.343L261.276 268.787L257.869 268.581L257.768 270.24ZM242.876 266.804L242.069 268.257L242.085 268.266L242.102 268.275L242.876 266.804ZM243.449 253.916L242.794 252.388L242.78 252.394L242.767 252.4L243.449 253.916ZM273.233 252.485L272.997 254.13L273.875 254.256L274.468 253.597L273.233 252.485ZM284.974 239.025L286.232 240.112L286.239 240.104L286.246 240.095L284.974 239.025ZM297.575 224.419L298.797 225.547L298.817 225.524L298.837 225.501L297.575 224.419ZM308.744 211.818L307.51 210.704L307.508 210.706L308.744 211.818ZM345.687 175.161L346.769 176.424L348.405 175.021L346.634 173.794L345.687 175.161ZM242.017 170.866L241.452 169.302L239.516 170.002L240.607 171.747L242.017 170.866ZM246.026 187.476L244.413 187.073L243.741 189.761L246.429 189.089L246.026 187.476ZM256.622 220.41L257.865 221.514L257.865 221.514L256.622 220.41ZM228.271 243.034L229.101 244.474L229.101 244.474L228.271 243.034ZM181.018 247.616L182.13 246.38L182.13 246.38L181.018 247.616ZM191.327 200.077L190.069 198.99L190.068 198.991L191.327 200.077ZM234.857 169.72L235.503 171.252L237.625 170.359L236.109 168.625L234.857 169.72ZM154.384 159.983L154.933 161.552L154.941 161.55L154.948 161.547L154.384 159.983ZM126.605 174.875L127.659 176.16L127.666 176.155L127.673 176.149L126.605 174.875ZM96.2484 207.809L94.7911 207.009L94.7757 207.037L94.7614 207.065L96.2484 207.809ZM93.0982 214.109L94.508 214.99L94.5498 214.923L94.5852 214.853L93.0982 214.109ZM88.2297 213.25L86.7066 212.584L86.5672 212.902V213.25H88.2297ZM101.976 192.058L100.684 191.012L100.684 191.012L101.976 192.058ZM122.596 171.725L121.587 170.403L121.587 170.403L122.596 171.725ZM152.379 156.546L151.819 154.981L151.811 154.984L152.379 156.546ZM239.726 167.715L238.444 168.774L239.194 169.683L240.301 169.275L239.726 167.715ZM351.415 170.293L350.502 171.682L351.51 172.344L352.452 171.592L351.415 170.293ZM299.426 260.899L278.52 255.458L277.682 258.676L298.588 264.117L299.426 260.899ZM276.869 255.95L268.564 265.114L271.028 267.347L279.333 258.183L276.869 255.95ZM269.796 267.893C279.487 267.893 289.36 266.633 299.41 264.121L298.604 260.895C288.798 263.346 279.197 264.568 269.796 264.568V267.893ZM257.768 252.827C254.371 252.827 251.625 253.136 249.672 253.861C248.684 254.228 247.791 254.74 247.134 255.473C246.445 256.241 246.082 257.178 246.082 258.212H249.407C249.407 258.005 249.462 257.857 249.608 257.694C249.786 257.496 250.146 257.232 250.829 256.978C252.217 256.463 254.483 256.152 257.768 256.152V252.827ZM246.082 258.212C246.082 260.686 248.052 262.644 250.596 264.21L252.339 261.378C249.919 259.889 249.407 258.793 249.407 258.212H246.082ZM250.679 264.258C253.372 265.708 256.9 266.8 261.194 267.58L261.788 264.309C257.681 263.562 254.527 262.553 252.256 261.331L250.679 264.258ZM262.751 267.029L271.629 256.72L269.109 254.55L260.231 264.86L262.751 267.029ZM270.604 253.989C265.23 253.221 260.939 252.827 257.768 252.827V256.152C260.706 256.152 264.816 256.521 270.134 257.281L270.604 253.989ZM240.768 190.728C234.921 192.14 229.784 195.067 225.377 199.474L227.728 201.825C231.722 197.831 236.322 195.222 241.548 193.96L240.768 190.728ZM225.377 199.474C223.335 201.515 221.751 203.341 220.665 204.943C219.615 206.493 218.876 208.058 218.876 209.527H222.201C222.201 209.088 222.463 208.218 223.418 206.808C224.337 205.451 225.76 203.793 227.728 201.825L225.377 199.474ZM218.876 209.527C218.876 210.594 219.026 211.67 219.542 212.53C220.14 213.526 221.121 214.054 222.257 214.054V210.729C222.206 210.729 222.242 210.72 222.312 210.759C222.385 210.799 222.407 210.842 222.393 210.82C222.373 210.786 222.321 210.68 222.276 210.454C222.231 210.23 222.201 209.926 222.201 209.527H218.876ZM222.257 214.054C227.54 214.054 232.082 211.914 235.807 207.776L233.335 205.551C230.187 209.049 226.519 210.729 222.257 210.729V214.054ZM235.807 207.776C239.482 203.692 241.798 198.616 242.798 192.618L239.518 192.071C238.608 197.528 236.533 201.998 233.335 205.551L235.807 207.776ZM113.773 313.484C113.773 315.04 114.418 316.381 115.75 317.242C116.957 318.023 118.556 318.297 120.304 318.297V314.972C118.808 314.972 117.972 314.72 117.556 314.451C117.265 314.262 117.098 314.028 117.098 313.484H113.773ZM120.304 318.297C124.556 318.297 128.147 315.556 131.148 310.956L128.363 309.139C125.635 313.321 122.926 314.972 120.304 314.972V318.297ZM131.138 310.97C134.376 306.113 136 300.732 136 294.869H132.675C132.675 300.079 131.243 304.818 128.372 309.125L131.138 310.97ZM136 294.869C136 293.308 135.905 291.996 135.664 291.029L132.438 291.836C132.578 292.396 132.675 293.376 132.675 294.869H136ZM133.063 290.095C126.809 294.714 122.04 298.931 118.819 302.746C115.633 306.521 113.773 310.123 113.773 313.484H117.098C117.098 311.308 118.342 308.467 121.36 304.891C124.344 301.356 128.883 297.315 135.038 292.77L133.063 290.095ZM280.602 255.253L307.522 261.267L308.247 258.022L281.327 252.008L280.602 255.253ZM308.433 261.214C324.507 255.597 337.46 247.242 347.223 236.112L344.724 233.919C335.395 244.554 322.956 252.617 307.336 258.075L308.433 261.214ZM347.213 236.124C357.097 225.077 362.242 214.292 362.242 203.8H358.917C358.917 213.163 354.325 223.188 344.735 233.907L347.213 236.124ZM362.242 203.8C362.242 193.245 358.538 184.315 351.142 177.12L348.824 179.503C355.557 186.054 358.917 194.116 358.917 203.8H362.242ZM348.886 177.062C341.034 183.957 334.688 190.012 329.862 195.224L332.302 197.483C337.022 192.385 343.277 186.412 351.08 179.561L348.886 177.062ZM329.86 195.226C325.278 200.19 321.748 204.007 319.267 206.678L321.704 208.94C324.188 206.265 327.721 202.446 332.303 197.481L329.86 195.226ZM319.31 206.633C316.78 209.163 313.309 213.022 308.91 218.186L311.441 220.342C315.825 215.196 319.227 211.418 321.661 208.984L319.31 206.633ZM308.91 218.186C304.519 223.341 301.384 226.95 299.495 229.028L301.955 231.265C303.884 229.143 307.05 225.497 311.441 220.342L308.91 218.186ZM299.49 229.035C297.75 230.967 294.296 234.997 289.145 241.103L291.686 243.247C296.844 237.133 300.264 233.145 301.961 231.259L299.49 229.035ZM289.125 241.126C284.155 247.244 281.026 251.036 279.714 252.535L282.216 254.725C283.577 253.17 286.749 249.324 291.706 243.223L289.125 241.126ZM247.509 189.839L245.505 190.126L245.975 193.417L247.98 193.131L247.509 189.839ZM244.1 191.498C242.811 199.234 239.789 205.607 235.071 210.687L237.508 212.95C242.718 207.338 245.996 200.347 247.38 192.045L244.1 191.498ZM235.071 210.687C230.42 215.696 224.751 218.174 217.961 218.174V221.499C225.681 221.499 232.231 218.632 237.508 212.949L235.071 210.687ZM217.961 218.174C216.744 218.174 216.12 217.841 215.767 217.444C215.38 217.009 215.041 216.189 215.041 214.682H211.716C211.716 216.612 212.141 218.369 213.282 219.653C214.456 220.974 216.123 221.499 217.961 221.499V218.174ZM215.041 214.682C215.041 213.276 215.585 211.471 216.893 209.216C218.192 206.976 220.179 204.405 222.898 201.499L220.47 199.227C217.652 202.24 215.486 205.015 214.017 207.548C212.556 210.066 211.716 212.461 211.716 214.682H215.041ZM222.897 201.5C228.42 195.608 234.827 191.774 242.134 189.948L241.327 186.722C233.36 188.714 226.403 192.899 220.471 199.226L222.897 201.5ZM243.393 188.335V186.903H240.068V188.335H243.393ZM243.393 186.903C243.393 182.119 241.729 177.141 238.564 171.999L235.733 173.742C238.677 178.527 240.068 182.905 240.068 186.903H243.393ZM236.504 171.338C219.509 178.483 205.916 187.979 195.79 199.857L198.32 202.014C208.05 190.6 221.186 181.385 237.793 174.403L236.504 171.338ZM195.799 199.847C185.761 211.429 180.501 222.213 180.501 232.151H183.826C183.826 223.38 188.493 213.353 198.311 202.025L195.799 199.847ZM180.501 232.151C180.501 237.721 182.106 242.184 185.58 245.217C189.011 248.212 193.986 249.565 200.205 249.565V246.24C194.396 246.24 190.35 244.967 187.767 242.712C185.227 240.495 183.826 237.082 183.826 232.151H180.501ZM200.205 249.565C212.967 249.565 226.32 243.485 240.228 231.702L238.078 229.165C224.494 240.674 211.881 246.24 200.205 246.24V249.565ZM240.229 231.7C247.261 225.728 252.605 220.132 256.202 214.909C259.793 209.694 261.721 204.736 261.721 200.077H258.396C258.396 203.817 256.841 208.119 253.463 213.023C250.092 217.919 244.983 223.301 238.077 229.166L240.229 231.7ZM261.721 200.077C261.721 196.76 260.499 194.061 257.932 192.27C255.473 190.554 251.992 189.823 247.745 189.823V193.148C251.707 193.148 254.383 193.848 256.029 194.996C257.566 196.069 258.396 197.665 258.396 200.077H261.721ZM417.283 141.885C417.942 141.885 418.292 142.015 418.467 142.126C418.608 142.216 418.741 142.358 418.834 142.684L422.032 141.771C421.743 140.76 421.16 139.9 420.252 139.321C419.377 138.764 418.342 138.56 417.283 138.56V141.885ZM418.771 142.227C418.771 142.371 418.747 142.615 418.185 142.97C417.559 143.365 416.46 143.749 414.732 144.022L415.251 147.306C417.152 147.006 418.772 146.531 419.96 145.781C421.212 144.99 422.096 143.802 422.096 142.227H418.771ZM414.796 144.013C395.111 146.352 375.064 155.887 354.663 172.438L356.758 175.02C376.833 158.733 396.307 149.558 415.188 147.315L414.796 144.013ZM354.636 174.998C363.07 182.148 367.222 190.86 367.222 201.222H370.547C370.547 189.82 365.916 180.202 356.786 172.461L354.636 174.998ZM367.222 201.222C367.222 211.569 362.507 222.267 352.745 233.343L355.24 235.542C365.333 224.089 370.547 212.641 370.547 201.222H367.222ZM352.735 233.355C343.206 244.378 330.274 253.115 313.866 259.528L315.077 262.624C331.889 256.054 345.305 247.035 355.25 235.53L352.735 233.355ZM314.198 262.716C323.462 264.26 333.291 265.03 343.683 265.03V261.705C333.455 261.705 323.81 260.947 314.745 259.436L314.198 262.716ZM343.683 265.03C344.095 265.03 344.418 265.056 344.662 265.096C344.911 265.138 345.039 265.188 345.087 265.212C345.128 265.233 345.06 265.208 344.984 265.095C344.902 264.971 344.884 264.851 344.884 264.799H348.209C348.209 264.269 348.072 263.732 347.751 263.25C347.437 262.779 347.01 262.456 346.574 262.238C345.749 261.826 344.722 261.705 343.683 261.705V265.03ZM344.884 264.799C344.884 264.805 344.884 264.785 344.896 264.752C344.908 264.72 344.922 264.704 344.919 264.707C344.906 264.722 344.796 264.832 344.451 264.964C343.737 265.236 342.479 265.428 340.532 265.428V268.753C342.595 268.753 344.344 268.563 345.635 268.071C346.292 267.82 346.934 267.453 347.422 266.896C347.938 266.305 348.209 265.582 348.209 264.799H344.884ZM340.532 265.428C327.247 265.428 315.919 264.383 306.524 262.316L305.809 265.563C315.507 267.697 327.088 268.753 340.532 268.753V265.428ZM305.662 262.356C293.226 266.313 280.119 268.389 266.337 268.578L266.382 271.903C280.474 271.71 293.906 269.586 306.671 265.524L305.662 262.356ZM265.108 269.145C253.103 282.866 242.063 294.571 231.986 304.267L234.292 306.663C244.453 296.885 255.56 285.107 267.611 271.335L265.108 269.145ZM231.986 304.267C221.924 313.95 210.522 323.547 197.779 333.057L199.768 335.722C212.607 326.14 224.117 316.454 234.292 306.663L231.986 304.267ZM197.795 333.046C172.1 351.75 144.088 361.079 113.718 361.079V364.404C144.824 364.404 173.516 354.832 199.752 335.734L197.795 333.046ZM113.718 361.079C94.4262 361.079 80.1577 357.196 70.6442 349.694L68.5855 352.306C78.9278 360.46 94.0612 364.404 113.718 364.404V361.079ZM70.6717 349.717C61.3039 342.002 56.6718 332.347 56.6718 320.643H53.3469C53.3469 333.377 58.4518 343.961 68.558 352.283L70.6717 349.717ZM56.6718 320.643C56.6718 308.783 61.8511 297.837 72.4765 287.771L70.1898 285.357C59.0501 295.91 53.3469 307.684 53.3469 320.643H56.6718ZM72.4875 287.76C83.0322 277.586 96.2567 272.475 112.286 272.475V269.151C95.4764 269.151 81.3991 274.541 70.1788 285.368L72.4875 287.76ZM112.286 272.475C118.695 272.475 123.762 273.592 127.592 275.705C131.385 277.798 134.06 280.919 135.644 285.143L138.758 283.976C136.905 279.035 133.709 275.283 129.198 272.794C124.722 270.325 119.05 269.151 112.286 269.151V272.475ZM138.078 285.972C155.973 274.858 174.669 269.325 194.191 269.325V266C174.002 266 154.704 271.732 136.324 283.147L138.078 285.972ZM193.817 269.283C194.954 269.545 195.621 269.857 195.97 270.126C196.26 270.35 196.252 270.467 196.252 270.527H199.577C199.577 269.25 198.947 268.222 197.997 267.491C197.105 266.805 195.91 266.353 194.565 266.043L193.817 269.283ZM196.252 270.527C196.252 270.434 196.273 270.273 196.371 270.095C196.471 269.915 196.604 269.804 196.701 269.745C196.787 269.694 196.83 269.692 196.783 269.702C196.738 269.711 196.643 269.723 196.482 269.723V273.048C197.071 273.048 197.79 272.97 198.411 272.597C199.168 272.142 199.577 271.376 199.577 270.527H196.252ZM196.482 269.723C175.347 269.723 155.659 275.546 137.452 287.167L139.241 289.97C156.927 278.681 175.996 273.048 196.482 273.048V269.723ZM136.734 288.972C136.87 289.516 136.97 290.667 136.97 292.578H140.295C140.295 290.671 140.205 289.149 139.959 288.165L136.734 288.972ZM136.97 292.578C136.97 299.09 134.987 305.36 130.949 311.416L133.716 313.261C138.079 306.716 140.295 299.813 140.295 292.578H136.97ZM130.963 311.397C126.957 317.223 122.54 319.84 117.727 319.84V323.165C123.988 323.165 129.308 319.673 133.703 313.28L130.963 311.397ZM117.727 319.84C115.122 319.84 113.471 319.338 112.503 318.603C111.621 317.934 111.084 316.904 111.084 315.202H107.759C107.759 317.701 108.607 319.821 110.493 321.252C112.293 322.617 114.796 323.165 117.727 323.165V319.84ZM111.084 315.202C111.084 312.166 112.875 308.155 117.011 303.079L114.434 300.978C110.169 306.212 107.759 310.983 107.759 315.202H111.084ZM116.988 303.107C121.26 298.091 126.866 293.224 133.836 288.514L131.975 285.759C124.816 290.596 118.967 295.656 114.457 300.951L116.988 303.107ZM134.449 286.519C132.591 281.874 129.49 278.348 125.178 276.01C120.899 273.69 115.518 272.587 109.136 272.587V275.912C115.163 275.912 119.949 276.957 123.593 278.933C127.204 280.89 129.783 283.808 131.362 287.754L134.449 286.519ZM109.136 272.587C96.4187 272.587 85.5727 277.58 76.6842 287.457L79.1556 289.681C87.4501 280.465 97.4145 275.912 109.136 275.912V272.587ZM76.6955 287.444C67.861 297.064 63.3702 307.763 63.3702 319.498H66.6952C66.6952 308.704 70.7959 298.784 79.1444 289.693L76.6955 287.444ZM63.3702 319.498C63.3702 331.25 67.8792 341.061 76.8311 348.82L79.0087 346.307C70.7777 339.174 66.6952 330.275 66.6952 319.498H63.3702ZM76.8611 348.845C86.0329 356.422 98.5774 360.108 114.29 360.108V356.783C99.0743 356.783 87.3718 353.215 78.9787 346.282L76.8611 348.845ZM114.29 360.108C129.92 360.108 144.148 357.793 156.957 353.135L155.821 350.01C143.427 354.517 129.591 356.783 114.29 356.783V360.108ZM156.936 353.143C169.718 348.688 182.09 341.917 194.05 332.851L192.041 330.201C180.327 339.081 168.261 345.675 155.842 350.003L156.936 353.143ZM194.04 332.859C206.116 323.849 216.956 314.737 226.558 305.519L224.255 303.12C214.765 312.231 204.032 321.256 192.051 330.193L194.04 332.859ZM226.559 305.519C236.336 296.124 247.155 284.731 259.012 271.343L256.523 269.138C244.707 282.479 233.951 293.805 224.255 303.121L226.559 305.519ZM257.869 268.581C251.689 268.206 246.987 267.089 243.65 265.332L242.102 268.275C246.02 270.337 251.246 271.51 257.667 271.9L257.869 268.581ZM243.683 265.35C240.445 263.551 239.384 261.794 239.384 260.217H236.059C236.059 263.603 238.434 266.238 242.069 268.257L243.683 265.35ZM239.384 260.217C239.384 258.765 240.467 257.081 244.131 255.433L242.767 252.4C238.794 254.188 236.059 256.705 236.059 260.217H239.384ZM244.104 255.445C247.872 253.83 252.225 253.001 257.195 253.001V249.677C251.855 249.677 247.044 250.567 242.794 252.388L244.104 255.445ZM257.195 253.001C262.462 253.001 267.729 253.378 272.997 254.13L273.468 250.839C268.045 250.064 262.62 249.677 257.195 249.677V253.001ZM274.468 253.597C276.2 251.673 280.126 247.172 286.232 240.112L283.717 237.937C277.604 245.005 273.702 249.478 271.997 251.372L274.468 253.597ZM286.246 240.095C292.358 232.837 296.535 227.997 298.797 225.547L296.353 223.291C294.033 225.805 289.809 230.702 283.703 237.954L286.246 240.095ZM298.837 225.501C301.114 222.844 304.826 218.657 309.98 212.93L307.508 210.706C302.352 216.435 298.618 220.648 296.313 223.337L298.837 225.501ZM309.978 212.933C315.316 207.022 319.59 202.464 322.807 199.247L320.456 196.896C317.181 200.171 312.863 204.777 307.51 210.704L309.978 212.933ZM322.807 199.247C333.494 188.56 341.475 180.961 346.769 176.424L344.605 173.899C339.208 178.525 331.151 186.201 320.456 196.896L322.807 199.247ZM346.634 173.794C333.832 164.932 315.593 160.612 292.134 160.612V163.937C315.259 163.937 332.723 168.208 344.741 176.528L346.634 173.794ZM292.134 160.612C274.385 160.612 257.487 163.506 241.452 169.302L242.582 172.429C258.24 166.77 274.753 163.937 292.134 163.937V160.612ZM240.607 171.747C243.43 176.263 244.65 179.654 244.65 182.035H247.975C247.975 178.688 246.332 174.633 243.427 169.984L240.607 171.747ZM244.65 182.035C244.65 183.452 244.626 184.589 244.581 185.455C244.533 186.357 244.466 186.86 244.413 187.073L247.639 187.879C247.777 187.328 247.853 186.542 247.901 185.63C247.951 184.683 247.975 183.481 247.975 182.035H244.65ZM246.429 189.089C246.981 188.951 248.046 188.852 249.749 188.852V185.527C248.016 185.527 246.599 185.619 245.623 185.863L246.429 189.089ZM249.749 188.852C255.744 188.852 259.961 189.775 262.63 191.401C265.166 192.946 266.415 195.186 266.415 198.358H269.74C269.74 194.084 267.935 190.74 264.361 188.562C260.92 186.465 255.973 185.527 249.749 185.527V188.852ZM266.415 198.358C266.415 203.828 262.956 210.782 255.38 219.305L257.865 221.514C265.563 212.854 269.74 205.107 269.74 198.358H266.415ZM255.38 219.305C247.876 227.747 238.57 235.18 227.44 241.593L229.101 244.474C240.5 237.905 250.095 230.255 257.865 221.514L255.38 219.305ZM227.44 241.593C216.295 248.016 206.855 251.108 199.06 251.108V254.433C207.683 254.433 217.717 251.034 229.101 244.474L227.44 241.593ZM199.06 251.108C191.028 251.108 185.505 249.418 182.13 246.38L179.905 248.852C184.167 252.687 190.672 254.433 199.06 254.433V251.108ZM182.13 246.38C178.704 243.297 176.952 239.186 176.952 233.87H173.627C173.627 240.008 175.694 245.062 179.905 248.852L182.13 246.38ZM176.952 233.87C176.952 224.331 182.004 213.445 192.587 201.162L190.068 198.991C179.267 211.528 173.627 223.17 173.627 233.87H176.952ZM192.585 201.163C203.273 188.788 217.558 178.808 235.503 171.252L234.212 168.188C215.881 175.906 201.147 186.163 190.069 198.99L192.585 201.163ZM236.109 168.625C226.333 157.453 211.381 152.02 191.614 152.02V155.345C210.794 155.345 224.671 160.604 233.606 170.815L236.109 168.625ZM191.614 152.02C178.26 152.02 165.658 154.15 153.82 158.419L154.948 161.547C166.402 157.416 178.62 155.345 191.614 155.345V152.02ZM153.835 158.414C142.247 162.47 132.795 167.52 125.537 173.601L127.673 176.149C134.543 170.393 143.61 165.515 154.933 161.552L153.835 158.414ZM125.55 173.59C110.597 185.859 100.288 196.997 94.7911 207.009L97.7057 208.609C102.901 199.147 112.829 188.329 127.659 176.16L125.55 173.59ZM94.7614 207.065L91.6112 213.366L94.5852 214.853L97.7354 208.552L94.7614 207.065ZM91.6884 213.228C90.855 214.562 90.2445 214.738 89.948 214.738V218.063C91.9425 218.063 93.4322 216.712 94.508 214.99L91.6884 213.228ZM89.948 214.738C89.9244 214.738 89.9824 214.736 90.0631 214.785C90.1401 214.832 90.1487 214.872 90.1188 214.817C90.0315 214.657 89.8922 214.204 89.8922 213.25H86.5672C86.5672 214.397 86.7142 215.519 87.1998 216.409C87.4562 216.879 87.8228 217.313 88.3293 217.622C88.8396 217.934 89.3988 218.063 89.948 218.063V214.738ZM89.7528 213.917C92.3429 207.996 96.8254 201.063 103.268 193.104L100.684 191.012C94.144 199.09 89.4623 206.285 86.7066 212.584L89.7528 213.917ZM103.268 193.104C109.687 185.175 116.467 178.493 123.604 173.046L121.587 170.403C114.214 176.03 107.248 182.903 100.684 191.012L103.268 193.104ZM123.604 173.046C130.679 167.647 140.438 162.658 152.947 158.109L151.811 154.984C139.119 159.599 129.023 164.729 121.587 170.403L123.604 173.046ZM152.94 158.112C165.538 153.599 179.093 151.336 193.618 151.336V148.011C178.742 148.011 164.804 150.33 151.819 154.981L152.94 158.112ZM193.618 151.336C214.109 151.336 228.929 157.246 238.444 168.774L241.008 166.657C230.667 154.128 214.748 148.011 193.618 148.011V151.336ZM240.301 169.275C258.232 162.669 277.986 159.355 299.58 159.355V156.03C277.643 156.03 257.494 159.397 239.151 166.155L240.301 169.275ZM299.58 159.355C321.151 159.355 338.074 163.52 350.502 171.682L352.327 168.903C339.173 160.264 321.538 156.03 299.58 156.03V159.355ZM352.452 171.592C375.008 153.586 396.663 143.75 417.432 141.878L417.134 138.567C395.518 140.514 373.261 150.725 350.378 168.994L352.452 171.592Z" fill="#FCF9E8" mask="url(#path-2-outside-1_139_2)"/>
</svg>
